<svg version="1.0" xmlns="http://www.w3.org/2000/svg" viewBox="0 0 320 210" > 
<title>Binary-Tree</title> 
 <defs> 
 <style type="text/css"> 
 </style> 
 </defs> 
<circle cx="160" cy="15" r="10" style="fill:white;stroke:black;stroke-width:1" />
<text x="160" y="20" style="text-anchor:middle;font-family:Verdana;font-size=10;fill:black">6</text>
<circle cx="80" cy="75" r="10" style="fill:white;stroke:black;stroke-width:1" />
<text x="80" y="80" style="text-anchor:middle;font-family:Verdana;font-size=10;fill:black">2</text>
<line x1="80" y1="65" x2="160" y2="25" style="stroke:black;stroke-width:1" />
<circle cx="40" cy="135" r="10" style="fill:white;stroke:black;stroke-width:1" />
<text x="40" y="140" style="text-anchor:middle;font-family:Verdana;font-size=10;fill:black">1</text>
<line x1="40" y1="125" x2="80" y2="85" style="stroke:black;stroke-width:1" />
<circle cx="120" cy="135" r="10" style="fill:white;stroke:black;stroke-width:1" />
<text x="120" y="140" style="text-anchor:middle;font-family:Verdana;font-size=10;fill:black">4</text>
<line x1="120" y1="125" x2="80" y2="85" style="stroke:black;stroke-width:1" />
<circle cx="100" cy="195" r="10" style="fill:white;stroke:black;stroke-width:1" />
<text x="100" y="200" style="text-anchor:middle;font-family:Verdana;font-size=10;fill:black">3</text>
<line x1="100" y1="185" x2="120" y2="145" style="stroke:black;stroke-width:1" />
<circle cx="140" cy="195" r="10" style="fill:white;stroke:black;stroke-width:1" />
<text x="140" y="200" style="text-anchor:middle;font-family:Verdana;font-size=10;fill:black">5</text>
<line x1="140" y1="185" x2="120" y2="145" style="stroke:black;stroke-width:1" />
<circle cx="240" cy="75" r="10" style="fill:white;stroke:black;stroke-width:1" />
<text x="240" y="80" style="text-anchor:middle;font-family:Verdana;font-size=10;fill:black">7</text>
<line x1="240" y1="65" x2="160" y2="25" style="stroke:black;stroke-width:1" />
<circle cx="280" cy="135" r="10" style="fill:white;stroke:black;stroke-width:1" />
<text x="280" y="140" style="text-anchor:middle;font-family:Verdana;font-size=10;fill:black">9</text>
<line x1="280" y1="125" x2="240" y2="85" style="stroke:black;stroke-width:1" />
<circle cx="260" cy="195" r="10" style="fill:white;stroke:black;stroke-width:1" />
<text x="260" y="200" style="text-anchor:middle;font-family:Verdana;font-size=10;fill:black">8</text>
<line x1="260" y1="185" x2="280" y2="145" style="stroke:black;stroke-width:1" />
</svg>