<svg version="1.0" xmlns="http://www.w3.org/2000/svg" viewBox="0 0 5120 450" > 
<title>Binary-Tree</title> 
 <defs> 
 <style type="text/css"> 
 </style> 
 </defs> 
<circle cx="2560" cy="15" r="10" style="fill:white;stroke:black;stroke-width:1" />
<text x="2555" y="20" style="font-family:Verdana;font-size=10;fill:black">6</text>
<circle cx="1280" cy="75" r="10" style="fill:white;stroke:black;stroke-width:1" />
<text x="1275" y="80" style="font-family:Verdana;font-size=10;fill:black">2</text>
<line x1="1280" y1="65" x2="2560" y2="25" style="stroke:black;stroke-width:1" />
<circle cx="640" cy="135" r="10" style="fill:white;stroke:black;stroke-width:1" />
<text x="635" y="140" style="font-family:Verdana;font-size=10;fill:black">1</text>
<line x1="640" y1="125" x2="1280" y2="85" style="stroke:black;stroke-width:1" />
<circle cx="1920" cy="135" r="10" style="fill:white;stroke:black;stroke-width:1" />
<text x="1915" y="140" style="font-family:Verdana;font-size=10;fill:black">3</text>
<line x1="1920" y1="125" x2="1280" y2="85" style="stroke:black;stroke-width:1" />
<circle cx="2240" cy="195" r="10" style="fill:white;stroke:black;stroke-width:1" />
<text x="2235" y="200" style="font-family:Verdana;font-size=10;fill:black">5</text>
<line x1="2240" y1="185" x2="1920" y2="145" style="stroke:black;stroke-width:1" />
<circle cx="2080" cy="255" r="10" style="fill:white;stroke:black;stroke-width:1" />
<text x="2075" y="260" style="font-family:Verdana;font-size=10;fill:black">4</text>
<line x1="2080" y1="245" x2="2240" y2="205" style="stroke:black;stroke-width:1" />
<circle cx="3840" cy="75" r="10" style="fill:white;stroke:black;stroke-width:1" />
<text x="3835" y="80" style="font-family:Verdana;font-size=10;fill:black">8</text>
<line x1="3840" y1="65" x2="2560" y2="25" style="stroke:black;stroke-width:1" />
<circle cx="3200" cy="135" r="10" style="fill:white;stroke:black;stroke-width:1" />
<text x="3195" y="140" style="font-family:Verdana;font-size=10;fill:black">7</text>
<line x1="3200" y1="125" x2="3840" y2="85" style="stroke:black;stroke-width:1" />
<circle cx="4480" cy="135" r="10" style="fill:white;stroke:black;stroke-width:1" />
<text x="4475" y="140" style="font-family:Verdana;font-size=10;fill:black">9</text>
<line x1="4480" y1="125" x2="3840" y2="85" style="stroke:black;stroke-width:1" />
<circle cx="4800" cy="195" r="10" style="fill:white;stroke:black;stroke-width:1" />
<text x="4795" y="200" style="font-family:Verdana;font-size=10;fill:black">10</text>
<line x1="4800" y1="185" x2="4480" y2="145" style="stroke:black;stroke-width:1" />
<circle cx="4960" cy="255" r="10" style="fill:white;stroke:black;stroke-width:1" />
<text x="4955" y="260" style="font-family:Verdana;font-size=10;fill:black">32</text>
<line x1="4960" y1="245" x2="4800" y2="205" style="stroke:black;stroke-width:1" />
<circle cx="4880" cy="315" r="10" style="fill:white;stroke:black;stroke-width:1" />
<text x="4875" y="320" style="font-family:Verdana;font-size=10;fill:black">12</text>
<line x1="4880" y1="305" x2="4960" y2="265" style="stroke:black;stroke-width:1" />
<circle cx="5040" cy="315" r="10" style="fill:white;stroke:black;stroke-width:1" />
<text x="5035" y="320" style="font-family:Verdana;font-size=10;fill:black">34</text>
<line x1="5040" y1="305" x2="4960" y2="265" style="stroke:black;stroke-width:1" />
<circle cx="5080" cy="375" r="10" style="fill:white;stroke:black;stroke-width:1" />
<text x="5075" y="380" style="font-family:Verdana;font-size=10;fill:black">47</text>
<line x1="5080" y1="365" x2="5040" y2="325" style="stroke:black;stroke-width:1" />
<circle cx="5100" cy="435" r="10" style="fill:white;stroke:black;stroke-width:1" />
<text x="5095" y="440" style="font-family:Verdana;font-size=10;fill:black">667</text>
<line x1="5100" y1="425" x2="5080" y2="385" style="stroke:black;stroke-width:1" />
</svg>